<svg version="1.1" id="Layer_1" xmlns="http://www.w3.org/2000/svg" xmlns:xlink="http://www.w3.org/1999/xlink" x="0px" y="0px"
	 width="100%" viewBox="0 0 1350 800" enable-background="new 0 0 1350 800" xml:space="preserve">
<path fill="#FFFFFF" opacity="1.000000" stroke="none" 
	d="
M854.000000,801.000000 
	C571.032776,801.000000 288.565582,800.991028 6.098384,801.090393 
	C2.130680,801.091797 0.866015,800.597290 0.868528,796.099426 
	C1.015694,532.630066 1.013128,269.160675 0.881760,5.691310 
	C0.879677,1.513245 1.875487,0.896856 5.807672,0.897811 
	C452.589142,1.006340 899.370605,1.005852 1346.152100,0.903635 
	C1350.000610,0.902754 1351.125244,1.386770 1351.123047,5.651042 
	C1350.985962,269.287048 1350.989502,532.923157 1351.102539,796.559143 
	C1351.104248,800.443604 1350.084961,801.089844 1346.441895,801.087585 
	C1182.461304,800.986511 1018.480652,801.000000 854.000000,801.000000 
z"/>
<path fill="#BA9468" opacity="1.000000" stroke="none" 
	d="
M685.730408,443.769043 
	C703.117859,449.175659 716.015930,439.900757 716.123230,422.257080 
	C716.192139,410.930695 715.953735,399.599060 716.227600,388.278839 
	C716.341431,383.574310 715.127930,380.493896 710.159119,379.388275 
	C716.149414,379.388275 722.139648,379.388275 728.704651,379.388275 
	C726.430115,380.953644 722.959656,380.552032 722.421326,383.537201 
	C721.983398,385.965607 722.012329,388.495392 722.002625,390.980865 
	C721.960876,401.641266 722.055054,412.302521 721.960876,422.962280 
	C721.841003,436.525757 714.388672,445.634888 701.067688,448.278320 
	C693.052368,449.868866 685.085876,449.288971 677.604004,445.803833 
	C667.785950,441.230530 663.469421,433.083435 663.401672,422.511230 
	C663.329102,411.184845 663.233582,399.854919 663.447754,388.532196 
	C663.537903,383.762268 662.616516,380.256409 657.106445,379.298218 
	C658.571228,379.152100 660.035950,379.005981 662.498962,378.760284 
	C652.001770,373.473511 649.788574,365.212097 651.493347,355.274780 
	C651.577698,354.782959 651.532288,354.236877 651.733826,353.802673 
	C652.685486,351.752899 647.827209,349.189728 651.885132,347.737885 
	C658.062134,345.527863 663.319031,347.460754 665.723694,352.258301 
	C666.757507,354.320801 667.722473,356.331360 669.083313,358.274689 
	C676.264465,368.529297 686.042297,375.505890 696.885864,381.265778 
	C698.051147,381.884735 699.119263,382.696472 700.186584,383.481171 
	C700.382690,383.625305 700.357361,384.070740 700.520081,384.719360 
	C694.959717,384.127197 689.864685,382.248657 684.691711,380.779602 
	C676.416077,378.429382 673.080994,380.814087 673.070557,389.350647 
	C673.057922,399.678040 672.967468,410.006744 673.100586,420.332458 
	C673.226685,430.119263 675.473511,438.913818 685.730408,443.769043 
z"/>
<path fill="#BB9469" opacity="1.000000" stroke="none" 
	d="
M784.884521,446.648499 
	C789.087280,444.843567 790.055359,441.657928 790.028564,437.614899 
	C789.923706,421.789734 789.840271,405.961426 790.065735,390.138794 
	C790.144104,384.635620 788.910461,380.663269 782.861389,379.377441 
	C790.643616,379.377441 798.425903,379.377441 806.208130,379.377441 
	C799.899048,381.004028 799.614807,385.672028 799.683289,390.999481 
	C799.880127,406.323029 799.768677,421.650757 799.742004,436.976776 
	C799.735535,440.709412 799.413940,444.920105 804.097229,445.862793 
	C808.791992,446.807800 811.342834,443.473328 813.102234,439.564819 
	C820.069092,424.087891 827.077148,408.629395 833.993530,393.129944 
	C836.224548,388.130463 838.909363,383.323883 840.381958,378.055420 
	C842.302673,377.751801 842.204346,379.376953 842.603455,380.253296 
	C851.225464,399.182587 859.865784,418.104401 868.312073,437.112305 
	C870.508545,442.055359 873.086243,446.188995 878.964722,447.357635 
	C870.672546,447.357635 862.380371,447.357635 854.088196,447.357635 
	C859.888123,445.740326 858.628540,441.987152 857.078979,437.973694 
	C852.307495,425.615295 852.342896,425.601624 839.490112,425.601624 
	C824.041748,425.601624 824.081421,425.614075 819.419983,440.471802 
	C818.636536,442.969055 819.229431,444.666473 821.646606,446.206451 
	C822.068115,446.551270 822.174255,446.695801 822.108765,447.047485 
	C809.943726,448.330200 797.934265,447.651733 785.498291,447.414734 
	C784.953613,447.115417 784.841003,446.984985 784.884521,446.648499 
z"/>
<path fill="#BA9468" opacity="1.000000" stroke="none" 
	d="
M582.280029,397.372009 
	C593.589478,373.310333 629.523865,373.154602 644.252136,387.066528 
	C655.841492,398.013489 657.694275,411.667877 653.063721,426.090851 
	C648.342468,440.796326 636.662231,447.332550 622.015076,448.751526 
	C609.089905,450.003754 596.816589,447.629425 587.816406,437.439270 
	C577.418152,425.666168 576.741211,412.003235 582.280029,397.372009 
z"/>
<path fill="#BE9970" opacity="1.000000" stroke="none" 
	d="
M567.778564,385.230652 
	C564.358582,381.733551 560.305969,382.826599 556.597961,382.896698 
	C552.180969,382.980194 546.499023,380.842651 543.684448,383.892731 
	C541.145935,386.643707 543.054626,392.175110 542.940857,396.477448 
	C542.835144,400.474182 543.074097,404.483948 542.868958,408.472931 
	C542.718750,411.393982 543.885254,412.261322 546.639465,412.100739 
	C549.795044,411.916718 552.981506,411.884583 556.133240,412.099457 
	C560.949768,412.427887 564.193665,410.734833 565.691895,405.790466 
	C565.691895,411.109772 565.691895,416.429077 565.691895,421.748383 
	C564.454163,414.761749 558.992249,415.750946 553.996948,415.756866 
	C542.918091,415.769958 542.918030,415.758850 542.918091,427.038300 
	C542.918152,431.371185 543.067139,435.710938 542.867249,440.034576 
	C542.731506,442.971527 543.519470,444.355164 546.725220,444.075928 
	C549.536926,443.831024 552.391418,443.920410 555.219055,444.044373 
	C564.320679,444.443390 571.077759,441.000183 574.771240,432.375732 
	C575.091125,431.628754 575.319702,430.772400 576.903870,430.769775 
	C575.233215,435.927917 573.580444,440.932526 572.002075,445.960510 
	C571.484070,447.610535 570.268311,447.762085 568.868530,447.761597 
	C554.591736,447.756805 540.314880,447.758667 525.452148,447.215088 
	C533.706421,446.221313 533.156372,440.553009 533.114807,434.927490 
	C533.004089,419.929840 532.926086,404.928528 533.157410,389.933624 
	C533.240601,384.540619 531.924255,380.760284 526.042542,379.059021 
	C529.379089,379.059021 532.717590,379.134094 536.051758,379.045135 
	C546.693665,378.761169 557.392639,379.955383 567.964417,377.954102 
	C570.202881,377.530304 570.975281,378.104919 570.888489,380.390320 
	C570.756470,383.866058 570.853882,387.350464 570.113159,391.038269 
	C569.419556,389.207611 568.725952,387.376923 567.778564,385.230652 
z"/>
<path fill="#BB9469" opacity="1.000000" stroke="none" 
	d="
M501.868164,448.965454 
	C497.043518,449.097260 492.790771,448.477509 488.641449,447.109802 
	C481.746033,444.836975 480.492584,442.821167 481.704041,435.686462 
	C482.061615,433.580597 482.184021,431.381073 483.539459,429.564148 
	C485.129974,429.771729 484.588226,431.038055 484.656433,431.874847 
	C485.131744,437.708191 487.837982,442.085022 493.358978,444.156799 
	C499.097260,446.310120 504.860718,446.104767 509.990723,442.352997 
	C515.891235,438.037750 515.996887,429.451599 510.223877,424.686249 
	C503.425476,419.074493 496.531464,413.577148 489.625031,408.098053 
	C484.116089,403.727631 481.986145,398.094727 483.560699,391.312469 
	C485.228607,384.127991 490.034943,379.777130 497.148376,378.262146 
	C503.427765,376.924744 509.737793,378.562836 516.039490,378.677795 
	C517.597900,378.706238 517.877930,379.737976 517.864807,381.053101 
	C517.832092,384.334045 517.854004,387.615570 517.288025,391.055817 
	C515.751404,387.907257 514.524963,384.831360 511.309174,383.164795 
	C508.067139,381.484650 504.682556,381.098999 501.135498,381.581604 
	C496.442078,382.220154 493.034698,384.612976 491.548981,389.174469 
	C490.051910,393.770721 492.167908,397.346832 495.556366,400.146271 
	C501.839142,405.336853 508.148590,410.512939 514.689575,415.368164 
	C521.484375,420.411743 524.172791,426.785278 521.929688,434.955353 
	C519.693176,443.101562 513.763794,447.152710 505.807373,448.677307 
	C504.671539,448.894928 503.489319,448.870575 501.868164,448.965454 
z"/>
<path fill="#BB9469" opacity="1.000000" stroke="none" 
	d="
M748.477173,427.998169 
	C748.478394,432.496246 748.569641,436.497620 748.449097,440.492615 
	C748.374390,442.967865 749.129150,444.178986 751.826050,444.077209 
	C755.985779,443.920258 760.164429,444.186890 764.317810,443.959412 
	C770.738525,443.607697 775.771912,440.764008 778.966003,435.007629 
	C779.667480,433.743317 780.440247,432.518555 782.155640,431.659698 
	C780.614807,436.414337 779.071167,441.168030 777.534668,445.924042 
	C776.932556,447.787567 775.415710,447.735474 773.878967,447.734375 
	C759.904358,447.724640 745.929749,447.728638 731.332947,447.298218 
	C739.708435,445.852844 738.569275,439.777039 738.565796,434.249512 
	C738.556458,419.420990 738.573303,404.592499 738.557373,389.763977 
	C738.549805,382.732666 737.810303,381.751465 729.945068,379.486755 
	C739.273865,379.486755 747.213867,379.486755 756.167114,379.486755 
	C753.149841,380.891876 750.054504,381.119659 749.057922,384.079041 
	C748.124451,386.850769 748.508484,389.696655 748.497375,392.510162 
	C748.451294,404.172882 748.477905,415.835876 748.477173,427.998169 
z"/>
<path fill="#BF9C73" opacity="1.000000" stroke="none" 
	d="
M593.764587,303.205750 
	C594.683594,307.503601 595.583374,311.387634 596.334595,315.300201 
	C596.645081,316.917297 598.221436,318.924042 595.860779,320.104248 
	C593.822449,321.123383 592.979309,319.000610 591.898621,317.901062 
	C589.919495,315.887482 588.144104,313.673370 586.161560,311.663391 
	C585.069702,310.556366 584.352112,308.759857 582.076660,309.020355 
	C581.536377,312.927490 583.453613,316.425110 583.887817,320.136749 
	C584.013550,321.212097 584.550110,322.625092 582.898315,323.030212 
	C581.066895,323.479401 581.226562,321.904755 580.991394,320.853699 
	C579.867126,315.830353 578.750549,310.805023 577.677795,305.770538 
	C577.354553,304.253418 576.027588,302.364105 577.985901,301.307129 
	C580.126648,300.151672 581.193542,302.326874 582.442810,303.547394 
	C585.368225,306.405487 587.539551,310.034546 591.576233,312.621124 
	C592.870850,309.255310 590.947998,306.579895 590.764465,303.813873 
	C590.642212,301.970673 588.733154,299.195496 591.022583,298.551025 
	C593.988647,297.716064 592.537415,301.457214 593.764587,303.205750 
z"/>
<path fill="#BF9C73" opacity="1.000000" stroke="none" 
	d="
M821.194092,348.446625 
	C821.459351,347.607758 821.641846,347.142822 821.852356,346.690918 
	C822.606079,345.072998 824.460876,343.187866 825.507263,343.830963 
	C831.373596,347.436554 834.896790,338.959167 840.213745,341.263153 
	C843.380798,342.635590 844.446533,345.441132 843.894958,348.692505 
	C843.372437,351.771881 841.096680,353.371033 838.169922,353.121368 
	C835.499390,352.893524 833.635986,352.906708 832.053894,355.649017 
	C830.882141,357.679993 828.318298,358.541077 825.864746,357.397980 
	C822.275757,355.725769 820.972961,352.642609 821.194092,348.446625 
z"/>
<path fill="#BE9970" opacity="1.000000" stroke="none" 
	d="
M535.854614,344.139282 
	C536.658813,350.206268 533.159058,354.791840 527.766724,355.323914 
	C526.922302,355.407257 526.004883,355.678528 525.604553,354.734894 
	C525.079590,353.497528 525.944641,352.928680 526.989685,352.604889 
	C527.625488,352.407928 528.309753,352.336945 528.914734,352.075989 
	C531.685364,350.880920 534.317444,349.139587 532.968994,345.770782 
	C531.666077,342.515564 528.827271,344.089478 526.493408,344.851654 
	C525.703064,345.109741 524.930481,345.424408 524.135193,345.664917 
	C521.502075,346.461182 518.854065,346.995392 516.739685,344.578003 
	C515.220703,342.841370 514.652527,340.837524 515.570801,338.556488 
	C516.790527,335.526642 519.022278,333.716156 522.170044,333.059967 
	C523.116699,332.862610 524.325012,332.750641 524.555420,334.108093 
	C524.735291,335.167267 523.717834,335.322113 522.964233,335.647766 
	C521.910950,336.102905 520.767883,336.492249 519.899231,337.199524 
	C518.582092,338.272034 517.492126,339.641296 518.429016,341.518433 
	C519.382996,343.429688 521.103638,343.276031 522.767456,342.831116 
	C524.209106,342.445587 525.596191,341.854309 527.004272,341.345337 
	C530.496948,340.082916 533.565247,340.309662 535.854614,344.139282 
z"/>
<path fill="#BF9C73" opacity="1.000000" stroke="none" 
	d="
M800.475220,310.738953 
	C806.877502,311.646332 809.259033,315.100616 807.564941,320.708710 
	C806.328369,324.802399 803.891846,328.180542 800.458679,330.706116 
	C796.721436,333.455353 791.501465,332.384735 789.649475,328.677917 
	C789.273987,327.926453 788.800964,327.151520 789.647522,326.461456 
	C790.548279,325.727234 791.065918,326.522217 791.715942,327.037476 
	C796.185059,330.580078 797.728149,330.336853 801.181152,325.438171 
	C797.901489,324.054291 793.773071,323.321747 794.064331,318.519806 
	C794.298828,314.654938 796.468323,312.096313 800.475220,310.738953 
z"/>
<path fill="#BF9C73" opacity="1.000000" stroke="none" 
	d="
M771.099487,304.567963 
	C771.441040,309.630096 769.949219,313.817535 767.207214,317.498505 
	C764.225037,321.501984 758.706360,321.991699 755.927734,318.717621 
	C755.388184,318.081879 754.771423,317.363922 755.365906,316.547180 
	C755.992493,315.686310 756.718994,316.220978 757.517090,316.568176 
	C762.906555,318.912842 764.032104,318.375671 766.665527,312.132538 
	C762.194458,312.177155 757.433228,312.106628 757.440186,306.105133 
	C757.444580,302.269409 759.112183,298.726318 763.495300,298.129852 
	C767.833496,297.539520 770.352783,299.903870 771.099487,304.567963 
z"/>
<path fill="#BB9469" opacity="1.000000" stroke="none" 
	d="
M665.943604,292.046936 
	C662.834778,291.874054 660.756470,291.826599 660.849121,295.750244 
	C660.938354,299.528534 663.067932,298.936981 665.396362,299.081543 
	C666.785095,299.167786 669.354675,297.897766 669.259399,300.523865 
	C669.190735,302.414795 666.799011,301.667206 665.461182,301.660217 
	C662.700195,301.645844 660.884460,301.774689 660.873047,305.549377 
	C660.860474,309.709503 663.106750,309.369019 665.908691,309.570984 
	C667.725464,309.701935 671.076294,307.849243 671.110657,310.978455 
	C671.132507,312.974884 667.747803,311.951935 665.927307,311.993256 
	C658.081726,312.171509 658.079956,312.098846 658.045471,304.008423 
	C658.037720,302.182251 658.031311,300.356049 658.023743,298.529877 
	C657.984070,288.905975 657.985229,288.887360 667.711365,289.496552 
	C668.870056,289.569122 670.811279,288.887726 670.720154,290.953125 
	C670.647888,292.591095 668.908142,291.820953 667.886292,292.025696 
	C667.407166,292.121674 666.893372,292.045044 665.943604,292.046936 
z"/>
<path fill="#BF9C73" opacity="1.000000" stroke="none" 
	d="
M621.566284,302.069214 
	C621.755737,303.980011 621.750488,305.522064 622.188232,306.925995 
	C623.741821,311.908722 627.639221,313.382874 632.298157,310.783966 
	C633.283813,310.234131 634.195679,308.931122 635.140991,310.460693 
	C635.974060,311.808807 634.661621,312.643219 633.709595,313.186310 
	C632.436157,313.912689 631.041809,314.630188 629.620239,314.858398 
	C623.597046,315.825378 618.769714,311.105377 618.213013,303.879517 
	C617.695435,297.161011 621.892151,291.636017 627.696472,291.579834 
	C628.972107,291.567474 630.295898,292.036621 631.517517,292.496552 
	C632.370422,292.817688 633.594360,293.207062 633.132324,294.559662 
	C632.652100,295.965393 631.618042,295.257477 630.660400,295.094543 
	C624.559387,294.056549 622.764587,295.371918 621.566284,302.069214 
z"/>
<path fill="#BF9C73" opacity="1.000000" stroke="none" 
	d="
M726.499756,295.932800 
	C725.475342,295.132629 723.692261,295.054718 724.338440,293.915955 
	C725.304077,292.214050 727.478638,292.426392 729.207336,292.285370 
	C730.759460,292.158752 731.061462,293.431976 730.886475,294.692413 
	C730.295776,298.948486 729.590515,303.189331 729.047974,307.451141 
	C728.766907,309.659149 727.927429,312.227448 731.461914,312.846375 
	C732.340881,313.000305 732.898438,313.696960 732.429565,314.690521 
	C732.094055,315.401245 731.426453,315.415894 730.741333,315.313293 
	C727.797974,314.872498 724.853638,314.437683 721.909119,314.004547 
	C721.018311,313.873505 720.205872,313.493561 720.325134,312.502228 
	C720.442017,311.530579 721.336365,311.213776 722.208069,311.381348 
	C724.274414,311.778534 725.487305,310.905029 725.633484,308.911469 
	C725.945129,304.661255 727.656372,300.541229 726.499756,295.932800 
z"/>
<path fill="#BF9C73" opacity="1.000000" stroke="none" 
	d="
M551.656067,321.446167 
	C550.657104,319.108704 549.788940,317.130188 548.965027,315.133423 
	C548.525208,314.067505 547.887268,312.900269 549.541077,312.248840 
	C550.841370,311.736694 551.367493,312.672180 551.764099,313.597656 
	C554.186096,319.249969 556.580261,324.914337 558.964172,330.582855 
	C559.367676,331.542236 559.622253,332.506927 558.302979,333.058624 
	C556.639648,333.754120 556.363770,332.552826 555.901550,331.433350 
	C554.569641,328.207581 553.175171,325.007629 551.656067,321.446167 
z"/>
<path fill="#717171" opacity="1.000000" stroke="none" 
	d="
M666.126648,488.146759 
	C666.188660,491.128754 666.188660,493.741608 666.188660,496.588837 
	C663.099487,496.071503 663.406433,492.632568 661.121033,491.985870 
	C659.426636,492.928497 661.195801,495.201691 659.216919,496.433441 
	C659.216919,493.290497 659.216919,490.426544 659.217896,487.568817 
	C659.911926,487.159210 660.517029,487.356018 660.878418,487.979065 
	C662.844910,491.369537 664.366333,491.593567 665.357666,487.410004 
	C665.361694,487.392883 665.603333,487.391418 665.697327,487.445892 
	C665.836975,487.526764 665.943787,487.664246 666.126648,488.146759 
z"/>
<path fill="#8B8B8B" opacity="1.000000" stroke="none" 
	d="
M678.868164,466.925903 
	C678.985352,470.013672 678.985352,472.729340 678.985352,475.914886 
	C675.790100,474.804413 675.656189,471.965973 673.388733,470.285126 
	C673.183167,472.133911 673.004761,473.737915 672.826416,475.341919 
	C672.419067,475.341888 672.011658,475.341827 671.604309,475.341766 
	C671.302307,472.298584 670.930786,469.257324 672.064392,466.030426 
	C674.625305,466.792267 674.624207,469.660767 676.481689,470.630096 
	C678.328918,469.749695 675.750305,466.678131 678.868164,466.925903 
z"/>
<path fill="#717171" opacity="1.000000" stroke="none" 
	d="
M716.014404,491.137360 
	C715.793579,493.118530 716.512878,494.815277 715.354187,496.516174 
	C712.742493,495.683441 712.871521,492.311493 710.297729,491.126862 
	C710.113220,492.984650 709.948120,494.647522 709.783020,496.310364 
	C708.400818,493.335083 708.679321,490.346527 708.898499,487.181458 
	C711.867432,487.752716 711.521667,491.218048 713.892700,491.891602 
	C715.124573,490.690094 714.109558,488.929596 715.149719,487.400635 
	C716.520691,488.276215 715.814453,489.657623 716.014404,491.137360 
z"/>
<path fill="#717171" opacity="1.000000" stroke="none" 
	d="
M791.773804,466.450043 
	C792.053833,469.588135 792.053833,472.480438 792.053833,475.858307 
	C790.092712,474.302979 791.654114,471.270447 788.562561,471.199707 
	C785.468750,471.128937 787.195007,474.541687 785.119690,475.411865 
	C785.119690,472.325745 785.119690,469.416718 785.119690,466.328674 
	C787.095154,466.904602 785.513184,470.353882 788.719299,470.075012 
	C791.754822,469.811035 790.054321,467.068298 791.773804,466.450043 
z"/>
<path fill="#8B8B8B" opacity="1.000000" stroke="none" 
	d="
M750.743408,475.282867 
	C750.300415,473.174744 750.125122,471.210846 750.104126,469.245331 
	C750.090942,467.997192 749.720520,466.356232 751.551331,466.045624 
	C753.154053,465.773743 754.896118,465.563599 756.261780,466.830902 
	C757.402893,467.889984 757.512390,469.346100 756.538574,470.385925 
	C754.830566,472.209839 756.949524,473.731140 756.881775,475.427521 
	C754.409363,475.523468 754.732361,472.500336 752.807861,472.245178 
	C751.304199,472.835236 752.658447,474.931915 750.743408,475.282867 
z"/>
<path fill="#8B8B8B" opacity="1.000000" stroke="none" 
	d="
M689.697632,489.649841 
	C691.185547,486.788574 693.320801,486.253479 695.742920,487.301849 
	C697.864441,488.220123 698.179443,490.240112 698.129822,492.359192 
	C698.074585,494.717621 696.707336,496.006653 694.673523,496.673492 
	C691.226807,497.803619 689.293823,495.253296 689.697632,489.649841 
z"/>
<path fill="#8B8B8B" opacity="1.000000" stroke="none" 
	d="
M858.801697,469.803650 
	C858.287964,471.958069 860.130859,473.626404 859.781677,475.577240 
	C857.692688,475.204071 857.818115,472.829773 856.136841,472.151062 
	C854.216187,472.382568 855.900940,474.982758 853.815552,475.488281 
	C852.802734,472.970245 853.192566,470.342743 853.375671,467.833282 
	C853.585815,464.952881 856.035889,465.843872 857.602905,466.055450 
	C860.006042,466.379913 861.063354,467.811707 859.350891,470.132141 
	C858.540710,469.574524 859.219360,470.160553 858.721497,469.717255 
	C858.503906,469.523468 858.289551,469.326447 858.058228,469.148773 
	C858.203552,469.324768 858.408875,469.429718 858.801697,469.803650 
z"/>
<path fill="#8B8B8B" opacity="1.000000" stroke="none" 
	d="
M479.913483,467.981964 
	C481.470215,465.277100 483.314453,465.486694 485.098999,466.461853 
	C486.319733,468.638062 479.144989,466.618256 483.823700,470.008911 
	C485.565979,471.271545 487.429688,472.545166 485.666565,474.654877 
	C483.985840,476.665924 481.687103,476.571655 479.689117,474.575500 
	C480.407745,472.968719 481.408356,474.258423 482.233765,474.204926 
	C483.049622,474.152069 484.037201,474.232758 484.101227,473.186340 
	C484.129547,472.723938 483.495636,472.078979 483.005219,471.754211 
	C481.670441,470.870361 479.848694,470.493896 479.913483,467.981964 
z"/>
<path fill="#717171" opacity="1.000000" stroke="none" 
	d="
M513.164551,473.058380 
	C512.631042,470.143036 512.593994,467.609924 515.368652,466.286499 
	C516.939819,465.537140 518.639893,465.702789 519.973633,467.042114 
	C521.545349,468.620422 521.727539,470.577667 521.161194,472.589294 
	C520.059814,476.501068 516.889343,476.806702 513.164551,473.058380 
z"/>
<path fill="#8B8B8B" opacity="1.000000" stroke="none" 
	d="
M803.139526,471.854675 
	C803.213623,465.556641 803.213623,465.556641 808.607361,466.482574 
	C808.048218,468.111359 804.802246,466.494934 805.310791,469.062134 
	C805.587219,470.457184 807.439514,469.503662 808.265869,470.386627 
	C807.972290,472.113373 805.071228,470.641968 805.207703,472.776489 
	C805.373596,475.371521 808.161621,473.419189 809.025330,474.872223 
	C804.622253,476.863007 803.913208,476.553894 803.139526,471.854675 
z"/>
<path fill="#8B8B8B" opacity="1.000000" stroke="none" 
	d="
M642.111328,492.741913 
	C642.341064,494.535492 643.167786,495.309235 644.503540,495.136475 
	C645.993774,494.943665 645.997986,493.612885 646.148438,492.459930 
	C646.367126,490.783600 645.718994,488.929993 647.437866,487.507751 
	C647.608582,490.516296 649.222412,493.709564 646.261414,496.305237 
	C645.036621,497.378937 643.328613,497.399750 642.123596,496.312805 
	C639.254883,493.725311 640.030396,490.576447 640.995483,486.308167 
	C642.424072,488.889709 641.909546,490.667694 642.111328,492.741913 
z"/>
<path fill="#8B8B8B" opacity="1.000000" stroke="none" 
	d="
M533.722534,470.150208 
	C533.981934,472.081390 533.372437,474.322357 536.004150,474.061096 
	C537.999390,473.863007 537.781006,472.063965 537.902039,470.574829 
	C538.014832,469.186157 537.405945,467.673065 538.844971,465.931946 
	C539.962036,469.311646 540.243469,472.272339 538.237732,474.909058 
	C537.151062,476.337585 535.181152,476.570221 533.745361,475.389587 
	C530.668884,472.859985 532.031616,469.538483 532.244507,466.251495 
	C534.319275,467.019684 533.471497,468.568909 533.722534,470.150208 
z"/>
<path fill="#8B8B8B" opacity="1.000000" stroke="none" 
	d="
M820.225708,474.643433 
	C821.335754,473.430084 823.396484,475.324188 823.991089,473.265137 
	C824.401611,471.843414 822.695862,471.630890 821.766602,471.094330 
	C820.115356,470.140808 819.071960,468.774017 820.352539,467.096130 
	C821.757874,465.254822 823.648804,465.468109 825.281006,466.617737 
	C825.669495,468.393463 819.657227,466.942230 823.929077,470.070587 
	C825.489380,471.213226 827.242859,472.295685 825.873413,474.350677 
	C824.481506,476.439575 822.379883,476.610443 820.225708,474.643433 
z"/>
<path fill="#8B8B8B" opacity="1.000000" stroke="none" 
	d="
M639.670288,471.383118 
	C642.632935,468.477173 640.058044,467.499695 637.577454,466.312958 
	C640.345154,465.853302 642.269104,465.597504 644.278320,466.369598 
	C643.873779,469.334808 641.067078,470.964752 640.313416,473.889771 
	C641.614197,474.140076 642.847107,474.377289 644.111450,474.620544 
	C643.972656,475.112854 643.942017,475.604553 643.809631,475.633606 
	C641.874939,476.059082 639.533447,476.650146 638.118896,475.424500 
	C636.750793,474.239075 638.941284,472.972137 639.670288,471.383118 
z"/>
<path fill="#8B8B8B" opacity="1.000000" stroke="none" 
	d="
M705.281860,469.716187 
	C707.612305,470.828400 710.121399,471.793335 708.160706,474.520691 
	C706.533203,476.784576 704.278931,476.408356 702.196289,474.720856 
	C702.788696,473.775513 703.432312,473.999512 704.034851,474.117004 
	C705.025818,474.310242 706.210693,474.544983 706.637146,473.451233 
	C707.142639,472.154663 705.755310,471.894623 704.961304,471.451416 
	C703.356079,470.555298 701.270203,469.759857 702.533020,467.451294 
	C703.682190,465.350586 705.650818,465.400452 707.559570,466.553406 
	C708.103271,468.939606 702.438110,465.489685 705.281860,469.716187 
z"/>
<path fill="#717171" opacity="1.000000" stroke="none" 
	d="
M658.516479,469.982361 
	C656.408813,473.690521 656.408813,473.690521 660.279114,475.124268 
	C656.423828,475.998352 655.405151,476.037781 655.276978,474.977173 
	C654.962341,472.372803 654.510803,469.533936 655.236328,467.127716 
	C655.920105,464.859985 658.460876,466.240326 660.208679,466.137543 
	C660.562134,468.190247 653.967346,465.879364 658.516479,469.982361 
z"/>
<path fill="#8B8B8B" opacity="1.000000" stroke="none" 
	d="
M583.380005,467.457581 
	C580.039246,467.781677 579.675720,469.908081 580.226868,472.180511 
	C580.865112,474.812164 583.174988,474.307129 585.246155,474.337067 
	C583.495789,476.539948 581.489014,476.495911 579.708008,474.673553 
	C577.560669,472.476257 577.527710,469.828827 579.401306,467.424072 
	C580.777161,465.658173 582.703491,465.313354 584.733826,466.427521 
	C584.933594,466.537140 584.936890,467.004700 585.031372,467.306122 
	C584.602966,467.387238 584.174500,467.468384 583.380005,467.457581 
z"/>
<path fill="#8B8B8B" opacity="1.000000" stroke="none" 
	d="
M773.236450,466.365753 
	C772.774231,468.529572 770.447388,466.741852 769.378174,468.560211 
	C767.704163,471.407104 769.405029,473.955170 774.046753,474.647400 
	C772.194275,476.548462 770.391846,476.318481 768.727539,474.965546 
	C766.690491,473.309540 766.433105,471.018188 767.338196,468.697449 
	C768.335571,466.139954 770.345520,465.387909 773.236450,466.365753 
z"/>
<path fill="#8B8B8B" opacity="1.000000" stroke="none" 
	d="
M876.966431,472.733704 
	C877.187317,473.692261 877.585754,474.430054 877.393005,474.947571 
	C877.064331,475.829773 876.391418,475.504242 876.018005,474.856079 
	C873.584778,470.632477 872.040527,474.219360 869.834351,476.004150 
	C870.033447,472.651428 870.637939,469.845642 873.333496,468.734558 
	C874.148560,468.398590 876.382202,470.445038 876.966431,472.733704 
z"/>
<path fill="#717171" opacity="1.000000" stroke="none" 
	d="
M840.272644,471.658447 
	C840.058105,473.103058 840.754150,474.332245 839.441528,475.396454 
	C837.730835,472.519379 840.902527,468.020630 835.557434,466.136719 
	C838.351074,466.136719 840.291992,466.136719 843.259766,466.136719 
	C840.699341,467.545471 839.945068,469.190277 840.272644,471.658447 
z"/>
<path fill="#8B8B8B" opacity="1.000000" stroke="none" 
	d="
M552.020996,467.541626 
	C552.510925,470.812439 549.998474,475.245361 556.656616,474.948395 
	C554.007629,475.926361 551.326355,477.103729 550.637146,474.635254 
	C549.937317,472.128906 548.989441,468.911285 551.453247,466.420349 
	C551.461243,466.412201 551.673584,466.569366 551.752258,466.677277 
	C551.848877,466.809753 551.905151,466.971619 552.020996,467.541626 
z"/>
<path fill="#717171" opacity="1.000000" stroke="none" 
	d="
M612.312988,471.671265 
	C612.097900,473.114563 612.798157,474.350983 611.444824,475.404877 
	C609.788635,472.516846 612.867859,468.049255 607.728943,466.149200 
	C610.351746,466.149200 612.285583,466.149200 615.194031,466.149200 
	C612.737976,467.564728 611.991333,469.215820 612.312988,471.671265 
z"/>
<path fill="#717171" opacity="1.000000" stroke="none" 
	d="
M497.414825,475.044250 
	C496.968842,473.508301 496.993378,472.026154 496.789917,470.576019 
	C496.176941,466.206421 498.093079,465.098389 502.068756,466.344482 
	C501.301300,467.979279 498.356934,466.366638 498.425018,468.776520 
	C498.474640,470.532349 500.513214,469.546783 501.426666,470.384979 
	C500.568390,471.678345 497.679504,470.408447 498.121521,473.465759 
	C498.306824,474.338440 498.196747,474.765015 497.414825,475.044250 
z"/>
<path fill="#8B8B8B" opacity="1.000000" stroke="none" 
	d="
M738.205994,467.278931 
	C740.500793,469.748260 740.416870,472.233612 738.540405,474.472687 
	C736.994751,476.317139 734.968018,476.596863 732.655884,474.801514 
	C732.375427,474.297943 732.345825,474.061310 732.597412,473.611847 
	C735.651184,472.898987 737.036255,471.206543 737.285217,468.092163 
	C737.563171,467.566040 737.709534,467.372375 738.205994,467.278931 
z"/>
<path fill="#8B8B8B" opacity="1.000000" stroke="none" 
	d="
M732.630127,474.339355 
	C730.348694,472.263794 730.287659,469.708344 732.027771,467.417877 
	C733.629150,465.310059 735.871948,465.242859 738.309021,467.101593 
	C738.418945,467.536713 738.281738,467.694244 737.921570,468.071899 
	C734.797241,468.650238 734.080505,470.797455 733.478455,473.463379 
	C733.137756,473.864594 732.996521,474.004364 732.630127,474.339355 
z"/>
<path fill="#8B8B8B" opacity="1.000000" stroke="none" 
	d="
M597.887695,470.945496 
	C597.609924,472.698425 598.561096,474.346954 596.512756,475.642944 
	C595.647583,472.391296 595.890198,469.416901 596.345154,466.174225 
	C598.716492,467.193115 597.564087,469.108429 597.887695,470.945496 
z"/>
<path fill="#8B8B8B" opacity="1.000000" stroke="none" 
	d="
M678.724854,487.799072 
	C678.908386,490.896515 678.908386,493.623962 678.908386,496.351440 
	C677.278748,493.317169 675.655701,490.306610 678.724854,487.799072 
z"/>
<path fill="#717171" opacity="1.000000" stroke="none" 
	d="
M625.511353,470.140015 
	C625.679199,468.669586 625.130493,467.454742 626.594421,466.124512 
	C626.594421,469.405060 626.594421,472.297058 626.594421,475.465118 
	C624.822693,474.026154 625.789001,472.125702 625.511353,470.140015 
z"/>
<path fill="#8B8B8B" opacity="1.000000" stroke="none" 
	d="
M497.223969,475.310211 
	C497.322937,474.756256 497.597290,474.536682 497.991577,474.075012 
	C499.513336,474.098053 500.915161,474.363129 503.012329,474.759674 
	C500.910889,476.539825 499.113037,475.851379 497.223969,475.310211 
z"/>
<path fill="#BF9C73" opacity="1.000000" stroke="none" 
	d="
M784.730591,446.382629 
	C785.046692,446.624359 785.050659,446.806335 785.059448,447.117126 
	C784.330383,447.731262 783.134888,448.078156 782.869141,447.364014 
	C782.419250,446.155121 783.708496,446.433807 784.730591,446.382629 
z"/>
<path fill="#BF9C73" opacity="1.000000" stroke="none" 
	d="
M822.171875,447.415619 
	C821.947632,447.067627 821.953552,446.880554 821.958496,446.550049 
	C822.579895,446.327698 823.237610,446.248077 823.382874,447.056824 
	C823.402893,447.168030 822.748657,447.400391 822.171875,447.415619 
z"/>
<path fill="#FCFBF9" opacity="1.000000" stroke="none" 
	d="
M843.055176,402.980804 
	C845.227905,408.427094 847.168579,413.555542 849.358704,418.575165 
	C850.540894,421.284393 849.863953,422.117981 847.016296,422.058228 
	C841.531616,421.943115 836.042236,421.976562 830.556030,422.044098 
	C828.396790,422.070648 827.317871,421.485657 828.289246,419.173004 
	C831.680420,411.099670 835.077881,403.028992 838.728394,394.350006 
	C841.253174,397.067322 841.665771,400.072388 843.055176,402.980804 
z"/>
<path fill="#FCFBF9" opacity="1.000000" stroke="none" 
	d="
M592.720947,397.882080 
	C595.222595,391.778412 599.053284,387.336639 604.446106,384.217194 
	C607.311584,382.559692 608.869934,382.428986 608.839539,386.600189 
	C608.709595,404.427521 608.680054,422.257416 608.854858,440.083954 
	C608.901184,444.809387 607.144653,444.133911 604.234375,442.432129 
	C595.017944,437.042999 591.320740,428.361786 590.185852,418.382263 
	C589.409912,411.558319 589.976440,404.739594 592.720947,397.882080 
z"/>
<path fill="#FCFBF9" opacity="1.000000" stroke="none" 
	d="
M626.218262,385.707397 
	C626.257324,384.014496 626.405273,382.780518 628.177490,383.517548 
	C630.341125,384.417389 632.272949,385.696075 634.020508,387.278870 
	C647.623230,399.599091 647.795227,426.704742 634.334045,439.209290 
	C632.242310,441.152374 629.557190,444.008545 627.274109,443.222900 
	C624.887756,442.401733 626.286133,438.536957 626.270203,436.042664 
	C626.164185,419.404419 626.215515,402.765106 626.218262,385.707397 
z"/>
<path fill="#F7F3EE" opacity="1.000000" stroke="none" 
	d="
M616.833740,431.989716 
	C616.833130,435.811798 616.825317,439.136566 616.834961,442.461273 
	C616.840027,444.210999 616.862427,446.066895 614.299072,445.574005 
	C612.482727,445.224731 610.149536,445.479675 610.156250,442.432465 
	C610.198486,423.149139 610.194092,403.865601 610.157837,384.582214 
	C610.151855,381.406311 612.390686,381.299225 614.562256,381.158081 
	C617.200684,380.986572 616.821106,383.007355 616.822815,384.613495 
	C616.839294,400.239777 616.833374,415.866089 616.833740,431.989716 
z"/>
<path fill="#F7F3EE" opacity="1.000000" stroke="none" 
	d="
M624.833740,436.890625 
	C623.901733,440.042999 627.256348,444.368530 621.633118,445.267731 
	C619.302307,445.640442 618.152161,445.235626 618.156067,442.664368 
	C618.185913,423.049438 618.174133,403.434448 618.171936,383.819458 
	C618.171753,382.371460 618.415466,380.900482 620.265503,381.255127 
	C622.039673,381.595245 624.548096,381.156738 624.794189,384.049286 
	C624.892517,385.205078 624.832764,386.374969 624.832825,387.538422 
	C624.834351,403.828857 624.833923,420.119263 624.833740,436.890625 
z"/>
<path fill="#FFFFFF" opacity="1.000000" stroke="none" 
	d="
M581.402283,307.705688 
	C581.370483,307.392212 581.486694,307.275879 581.602905,307.159546 
	C581.701721,307.290985 581.884644,307.428406 581.875854,307.552185 
	C581.867004,307.676147 581.666687,307.786499 581.402283,307.705688 
z"/>
<path fill="#FFFFFF" opacity="1.000000" stroke="none" 
	d="
M592.219604,313.293457 
	C592.449036,313.294495 592.505249,313.490509 592.561401,313.686554 
	C592.389709,313.620483 592.218079,313.554443 592.219604,313.293457 
z"/>
<path fill="#FCFBF9" opacity="1.000000" stroke="none" 
	d="
M823.807739,349.190063 
	C825.104614,345.879669 827.336975,345.590546 829.954468,346.530670 
	C832.351440,347.391663 831.783936,349.175720 831.320801,351.013000 
	C830.794861,353.099030 829.852844,354.949707 827.537964,354.847473 
	C824.372375,354.707703 823.697083,352.297180 823.807739,349.190063 
z"/>
<path fill="#FCFBF9" opacity="1.000000" stroke="none" 
	d="
M834.382690,347.326416 
	C835.225098,344.516022 836.765625,343.284729 839.356323,343.888458 
	C841.071472,344.288177 841.888733,345.683868 841.701355,347.258820 
	C841.429138,349.546600 839.734497,350.727905 837.537476,350.839264 
	C835.515808,350.941681 833.811829,350.352600 834.382690,347.326416 
z"/>
<path fill="#FCFBF9" opacity="1.000000" stroke="none" 
	d="
M799.237793,314.233826 
	C801.757324,312.449951 803.805725,312.879578 804.815308,315.228394 
	C805.729797,317.355804 805.693054,319.873016 803.804260,321.640686 
	C802.191101,323.150421 800.160095,323.129486 798.379517,321.797791 
	C796.192383,320.161987 796.733826,318.103210 797.813049,316.084381 
	C798.118286,315.513336 798.563293,315.016998 799.237793,314.233826 
z"/>
<path fill="#FCFBF9" opacity="1.000000" stroke="none" 
	d="
M767.606140,308.737122 
	C762.498901,310.726410 759.606140,309.282288 760.299438,305.360657 
	C760.780640,302.638489 762.126648,299.617615 765.393311,300.623108 
	C769.145996,301.778290 769.266663,305.125336 767.606140,308.737122 
z"/>
<path fill="#F7F3EE" opacity="1.000000" stroke="none" 
	d="
M752.085083,468.260742 
	C753.213806,466.775696 754.179077,466.957245 754.963196,468.169006 
	C755.388855,468.826843 755.157410,469.500244 754.496216,469.830017 
	C753.244202,470.454376 752.244385,470.323425 752.085083,468.260742 
z"/>
<path fill="#F7F3EE" opacity="1.000000" stroke="none" 
	d="
M694.828491,488.560394 
	C695.375305,489.026978 695.700745,489.236053 695.792419,489.520538 
	C696.473145,491.630646 697.096985,493.928284 694.491089,495.062836 
	C692.934998,495.740295 691.470520,494.801331 691.206970,493.033417 
	C690.837219,490.553192 691.065796,488.259064 694.828491,488.560394 
z"/>
<path fill="#F7F3EE" opacity="1.000000" stroke="none" 
	d="
M859.015198,470.012390 
	C857.780090,469.589386 855.984863,471.286621 855.229309,469.127472 
	C855.055298,468.630127 855.331116,467.487488 855.635742,467.391693 
	C857.306152,466.866455 858.533752,467.394836 858.915710,469.677490 
	C859.028748,470.028687 858.999939,470.001007 859.015198,470.012390 
z"/>
<path fill="#F7F3EE" opacity="1.000000" stroke="none" 
	d="
M519.531982,468.814270 
	C520.124634,471.196808 520.314087,473.229126 517.948181,474.217194 
	C516.506836,474.819153 515.404968,474.147888 514.718445,472.780212 
	C513.892700,471.135254 513.990723,469.533661 515.195068,468.158203 
	C516.638123,466.509979 518.059814,466.907166 519.531982,468.814270 
z"/>
<path fill="#FCFBF9" opacity="1.000000" stroke="none" 
	d="
M733.660706,473.841034 
	C733.383301,471.045624 730.600952,466.465240 737.382202,468.133545 
	C737.867859,471.076172 739.214355,474.620148 733.660706,473.841034 
z"/>
</svg>